<?xml version="1.0" standalone="no"?>
<!DOCTYPE svg PUBLIC "-//W3C//DTD SVG 20010904//EN"
 "http://www.w3.org/TR/2001/REC-SVG-20010904/DTD/svg10.dtd">
<svg version="1.0" xmlns="http://www.w3.org/2000/svg"
 width="128.000000pt" height="128.000000pt" viewBox="0 0 128.000000 128.000000"
 preserveAspectRatio="xMidYMid meet">

<g transform="translate(0.000000,128.000000) scale(0.100000,-0.100000)"
fill="#000000" stroke="none">
<path d="M511 1250 c-67 -24 -142 -72 -180 -115 -35 -40 -70 -131 -78 -200 -4
-32 -18 -69 -39 -102 -50 -78 -121 -239 -111 -249 3 -3 14 11 25 33 24 46 51
71 117 111 28 16 88 53 135 82 77 46 89 51 130 47 28 -3 55 0 70 9 30 16 43
18 35 4 -3 -5 0 -10 7 -10 29 0 56 -76 33 -92 -6 -5 -5 -8 2 -8 7 0 10 -7 6
-16 -5 -14 -1 -16 20 -12 19 4 27 1 27 -8 0 -17 12 -18 27 -3 12 12 37 3 28
-11 -8 -13 6 -40 20 -40 14 0 30 -59 42 -155 12 -97 9 -120 -13 -120 -13 0
-20 -8 -22 -27 -3 -25 -6 -27 -24 -17 -18 10 -20 9 -14 -6 4 -12 -5 -32 -26
-61 -32 -41 -34 -42 -77 -37 -50 7 -50 -7 -1 -27 34 -14 34 -15 19 -59 -14
-40 -40 -51 -93 -38 -23 5 -76 11 -119 14 -73 5 -79 4 -84 -16 -3 -12 -9 -21
-13 -21 -4 0 -13 -13 -20 -30 -9 -21 -19 -30 -35 -30 -12 0 -30 -9 -40 -20
-17 -19 -14 -19 324 -20 l342 0 -12 22 c-10 19 -9 24 12 37 39 26 112 92 139
125 14 18 35 43 48 56 57 61 85 119 90 189 4 61 1 74 -27 132 -17 35 -31 70
-31 77 0 7 -8 27 -17 45 -13 25 -17 63 -19 173 -2 163 -12 191 -98 282 -87 92
-194 132 -353 132 -71 -1 -113 -6 -152 -20z m248 -385 c12 -12 13 -17 3 -27
-10 -10 -17 -10 -32 0 -11 6 -27 12 -35 12 -8 0 -15 5 -15 10 0 6 -8 10 -17
10 -16 0 -16 2 -3 11 20 13 80 4 99 -16z m25 -60 c-4 -8 -10 -12 -15 -9 -11 6
-2 24 11 24 5 0 7 -7 4 -15z m66 -141 c0 -8 -4 -14 -10 -14 -5 0 -10 2 -10 4
0 2 -3 12 -6 20 -5 12 -2 15 10 10 9 -3 16 -12 16 -20z m13 -44 c-6 -22 -18
-26 -28 -10 -8 13 3 30 20 30 8 0 11 -7 8 -20z m-503 -585 c-7 -9 -15 -13 -18
-10 -3 2 1 11 8 20 7 9 15 13 18 10 3 -2 -1 -11 -8 -20z"/>
<path d="M355 737 c-70 -39 -119 -135 -90 -173 12 -15 14 -16 9 -2 -18 53 76
166 147 175 29 4 45 1 59 -12 11 -10 23 -15 28 -11 4 4 -4 16 -17 27 -31 25
-87 24 -136 -4z"/>
<path d="M332 647 c-28 -30 -28 -68 1 -95 29 -27 47 -28 81 -1 20 15 26 29 26
58 0 20 -5 42 -12 49 -20 20 -72 14 -96 -11z m73 -37 c-3 -5 -10 -10 -16 -10
-5 0 -9 5 -9 10 0 6 7 10 16 10 8 0 12 -4 9 -10z"/>
<path d="M769 605 c-1 -3 -2 -8 -3 -12 -1 -5 -5 -14 -9 -20 -5 -8 -3 -13 5
-13 7 0 18 11 25 25 9 20 8 25 -3 25 -8 0 -15 -2 -15 -5z"/>
<path d="M688 511 c-17 -16 -25 -51 -13 -51 3 0 15 5 28 12 12 6 29 14 37 18
8 4 15 13 15 21 0 21 -47 21 -67 0z"/>
<path d="M457 338 c-21 -11 -21 -36 -2 -62 16 -21 17 -21 34 11 22 43 5 72
-32 51z"/>
<path d="M1055 69 c-49 -28 -94 -54 -99 -60 -6 -5 22 -9 75 -9 84 0 86 0 119
35 30 31 32 37 22 60 -6 14 -15 25 -19 25 -5 0 -48 -23 -98 -51z"/>
<path d="M290 60 c0 -5 5 -10 10 -10 6 0 10 5 10 10 0 6 -4 10 -10 10 -5 0
-10 -4 -10 -10z"/>
</g>
</svg>
